<?xml version="1.0" encoding="UTF-8"?>
<!DOCTYPE svg PUBLIC "-//W3C//DTD SVG 1.1//EN" "http://www.w3.org/Graphics/SVG/1.1/DTD/svg11.dtd">
<!-- Creator: CorelDRAW -->
<svg xmlns="http://www.w3.org/2000/svg" xml:space="preserve" width="297mm" height="181.5mm" style="shape-rendering:geometricPrecision; text-rendering:geometricPrecision; image-rendering:optimizeQuality; fill-rule:evenodd; clip-rule:evenodd"
viewBox="0 0 297 181.5">
 <defs>
  <style type="text/css">
   <![CDATA[
    .str1 {stroke:#1F1A17;stroke-width:0.0762}
    .str3 {stroke:#1F1A17;stroke-width:0.3528}
    .str0 {stroke:#1F1A17;stroke-width:0.7056}
    .str2 {stroke:#1F1A17;stroke-width:1.4111}
    .fil19 {fill:none}
    .fil11 {fill:#1F1A17}
    .fil7 {fill:#383431}
    .fil16 {fill:#3C746B}
    .fil9 {fill:#3F4446}
    .fil21 {fill:#495F5F}
    .fil12 {fill:#4D4948}
    .fil15 {fill:#5D7E7E}
    .fil13 {fill:#605D5C}
    .fil3 {fill:#72706F}
    .fil14 {fill:#838281}
    .fil2 {fill:#969594}
    .fil1 {fill:#96AEBE}
    .fil6 {fill:#AAA9A9}
    .fil8 {fill:#B6DDC7}
    .fil0 {fill:#C2C1C1}
    .fil20 {fill:#C4BF66}
    .fil5 {fill:#DEDEDD}
    .fil18 {fill:#FFF974}
    .fil17 {fill:#FFFB9C}
    .fil10 {fill:#FFFCC8}
    .fil4 {fill:#748997}
   ]]>
  </style>
 </defs>
 <g id="Camada_x0020_1">
  <metadata id="CorelCorpID_0Corel-Layer"/>
  <polygon class="fil0 str0" points="38.7959,100.512 32.6238,101.308 32.6238,95.3352 19.085,95.9325 17.2931,111.861 16.0985,127.988 19.4832,146.703 29.8364,144.712 "/>
  <rect class="fil0 str0" x="38.1144" y="80.414" width="27.5232" height="28.1088" rx="2.6147" ry="2.6147"/>
  <polygon class="fil1 str1" points="24.2616,106.485 24.4607,119.625 71.2298,128.896 124.011,125.798 121.821,99.3172 "/>
  <rect class="fil2 str1" x="129.187" y="87.5703" width="39.0236" height="19.1136"/>
  <polygon class="fil3 str1" points="138.048,78.1817 129.919,81.3338 133.237,89.7947 161.44,92.9468 173.219,99.9146 182.841,99.9146 183.837,85.3154 "/>
  <polygon class="fil4 str1" points="25.257,117.102 25.4561,130.243 72.2252,139.514 125.006,136.415 122.816,109.935 "/>
  <rect class="fil5 str0" x="68.6609" y="54.1215" width="11.1496" height="29.6659" rx="2.8989" ry="2.8989"/>
  <rect class="fil5 str0" transform="matrix(1.03281 0.090765 -0.0875443 0.996161 67.8023 80.3459)" width="59.5309" height="26.8785" rx="2.0159" ry="2.0159"/>
  <polygon class="fil6 str0" points="162.657,89.85 173.164,89.85 173.164,98.0235 181.443,97.829 181.443,111.812 134.517,111.812 134.517,112.997 123.741,112.997 124.004,116.38 76.36,120.078 75.6896,111.438 120.534,107.958 120.534,86.927 134.517,86.927 134.379,98.9346 162.657,98.2703 "/>
  <polygon class="fil7 str0" points="181.443,109.205 75.03,116.552 71.949,118.685 71.712,122.951 74.556,128.165 184.05,120.107 "/>
  <polygon class="fil8 str1" points="71.9415,126.911 75.1515,132.689 183.81,124.504 183.81,119.207 "/>
  <polygon class="fil9 str0" points="180.168,81.683 180.62,87.7904 142.619,84.3974 140.809,80.552 128.368,77.3852 123.392,74.6708 124.07,71.2778 126.559,70.5992 129.273,70.5992 130.63,71.0516 131.083,48.6578 132.892,41.4194 134.023,37.574 136.295,32.7725 138.546,29.336 142.694,24.7145 146.604,21.3965 150.515,19.9745 155.136,18.908 159.284,18.434 164.498,19.145 167.815,20.567 "/>
  <ellipse class="fil10 str2" cx="163.807" cy="50.3954" rx="30.9881" ry="31.0944"/>
  <path class="fil11 str1" d="M195.542 20.5153l-36.8372 0c-23.2306,9.2922 -23.3136,27.0471 -19.6631,44.3042l43.8064 3.9824 12.6939 -48.2866z"/>
  <g id="_135094184">
   <rect id="_135408904" class="fil7" transform="matrix(0.971699 0.0949835 -0.0949835 0.971699 139.009 37.6189)" width="42.313" height="11.9472" rx="4.6594" ry="4.6594"/>
   <rect id="_135654544" class="fil12" transform="matrix(0.95887 0.101818 -0.115192 0.758374 139.548 39.0089)" width="42.313" height="11.9472" rx="4.6594" ry="4.6594"/>
   <rect id="_135317920" class="fil13" transform="matrix(0.963077 0.0811379 -0.112263 0.566573 139.358 40.5295)" width="42.313" height="11.9472" rx="4.6594" ry="4.6594"/>
   <rect id="_134957608" class="fil14" transform="matrix(0.954882 0.0889059 -0.122488 0.470483 139.505 41.0457)" width="42.313" height="11.9472" rx="4.6594" ry="4.6594"/>
  </g>
  <path class="fil6 str0" d="M138.8 64.1555l39.7136 4.0125 0.4815 7.2225 -37.557 -5.2965c-1.2305,-1.9795 -2.3706,-3.7985 -2.6381,-5.9385z"/>
  <ellipse class="fil10 str2" cx="208.683" cy="56.7912" rx="35.295" ry="38.6888"/>
  <polygon class="fil9 str1" points="27.6712,117.004 22.4716,116.509 18.7576,146.716 23.9572,150.925 35.5944,150.182 71.744,165.038 75.9532,166.524 184.402,156.372 179.698,145.23 32.6232,138.793 "/>
  <path class="fil15 str0" d="M243.063 41.2876c-0.5276,-13.0373 -33.8452,-45.5281 -61.9616,-1.0239 -7,13.9566 -3.3538,27.2166 -1.2994,37.0939l-1.2603 34.8252 4.4647 11.9297 -108.23 7.0542 -0.2758 33.4833 100.948 -8.4842 63.9968 -2.8668 3.6182 -112.011z"/>
  <polygon class="fil9 str0" points="278.342,70.121 267.613,66.7 258.128,77.7405 262.015,82.561 262.793,88.47 260.46,95.312 257.505,98.2665 249.886,99.1995 250.664,105.575 264.97,102.154 "/>
  <polygon class="fil16 str0" points="240.146,153.321 242.489,156.835 247.174,156.249 250.394,152.443 270.012,109.987 274.99,108.523 274.697,102.667 280.553,89.198 283.188,83.0492 283.188,76.9004 280.846,71.9228 278.21,68.9948 273.526,70.4588 269.719,75.1436 260.35,100.91 253.03,102.081 251.273,84.5132 250.394,81.5852 246.295,78.6572 243.074,76.9004 238.097,85.6844 236.34,147.465 "/>
  <path class="fil15 str0" d="M243.869 42.3404c-0.4645,-12.9178 -29.7986,-45.1108 -54.5534,-1.0145l-4.9775 114.84 56.3453 -2.8406 3.1856 -110.985z"/>
  <g id="_134940192">
   <ellipse id="_134506424" class="fil17 str0" cx="218.434" cy="33.9626" rx="7.2671" ry="8.4617"/>
   <ellipse id="_134941000" class="fil10 str0" cx="219.031" cy="33.8631" rx="2.0905" ry="2.1901"/>
  </g>
  <path class="fil18 str0" d="M223.561 86.6482l0 26.8051c-2.7874,1.5928 -5.973,1.1946 -8.9595,0l0 -27.1339c-3.6559,-1.6723 -6.1721,-5.1647 -6.1721,-9.2019 0,-5.6619 4.9483,-10.2536 11.05,-10.2536 6.1018,0 11.0501,4.5917 11.0501,10.2536 0,4.3242 -2.8866,8.0237 -6.9685,9.5307z"/>
  <rect class="fil17 str0" transform="matrix(1.16968 0.0902565 -0.106004 0.995919 218.472 105.622)" width="14.9325" height="4.7784" rx="2.2936" ry="2.2936"/>
  <ellipse class="fil10 str0" cx="222.565" cy="76.8189" rx="7.36664" ry="8.7604"/>
  <ellipse class="fil19 str0" cx="223.76" cy="77.018" rx="2.58826" ry="2.9865"/>
  <ellipse class="fil10 str1" cx="233.814" cy="109.272" rx="1.6923" ry="1.991"/>
  <polygon class="fil10 str0" points="246.527,72.5468 244.537,71.5516 241.551,70.6808 238.068,70.8052 238.068,73.1688 240.432,75.1592 240.183,82.0012 239.561,83.494 240.556,84.9868 242.671,85.36 244.91,83.1208 244.412,80.2596 244.91,74.9104 246.776,73.9152 "/>
  <ellipse class="fil10 str2" cx="161.357" cy="148.44" rx="6.3871" ry="6.2212"/>
  <ellipse class="fil20 str1" cx="161.772" cy="149.021" rx="1.4931" ry="1.8249"/>
  <ellipse class="fil10 str1" cx="215.267" cy="127.49" rx="7.29821" ry="8.46175"/>
  <ellipse class="fil20 str1" cx="214.9" cy="127.39" rx="4.28065" ry="5.3757"/>
  <rect class="fil18 str1" x="213.805" y="125.997" width="5.3757" height="2.5883"/>
  <rect class="fil11 str1" transform="matrix(0.986732 0.162357 -0.162357 0.986732 27.1428 117.041)" width="47.5125" height="11.765"/>
  <polygon class="fil20 str1" points="25.4562,120.621 26.0535,130.576 71.8465,140.73 73.0411,128.187 71.0501,128.585 70.4528,133.363 30.4337,125.001 30.4337,121.417 "/>
  <polygon class="fil21 str0" points="25.2571,127.789 24.0625,148.296 33.4202,148.495 69.8555,162.631 71.8465,138.54 "/>
  <polygon class="fil16 str1" points="74.833,131.173 73.6384,128.386 71.8465,127.191 70.4528,161.636 73.8375,164.821 "/>
  <polygon class="fil16 str1" points="24.168,119.144 22.9734,116.531 21.1815,115.411 19.7878,147.699 23.1725,150.685 "/>
  <polyline class="fil19 str0" points="229.498,52.3175 225.425,46.435 219.09,45.9825 215.47,49.6025 215.47,54.58 221.353,53.675 224.973,58.2 "/>
  <rect class="fil19 str0" x="123.615" y="92.141" width="6.873" height="16.353"/>
  <rect class="fil10 str0" transform="matrix(1.0127 0.123214 -0.125737 0.99238 131.14 68.6462)" width="48.111" height="10.665" rx="2.6663" ry="2.6663"/>
  <rect class="fil19 str0" x="166.021" y="93.1451" width="3.982" height="5.5748"/>
  <circle class="fil19 str3" cx="74.833" cy="60.2936" r="3.3847"/>
  <rect class="fil5 str0" transform="matrix(0.990952 0.13422 -0.13422 0.990952 74.6495 58.469)" width="30.7468" height="3.5392" rx="1.0795" ry="1.0795"/>
  <path class="fil5 str0" d="M130.654 81.002c2.0023,0 3.6261,1.5283 3.6261,3.4128 0,1.8845 -1.6238,3.4128 -3.6261,3.4128 -2.0023,0 -3.6261,-1.5283 -3.6261,-3.4128 0,-0.1247 0.0074,-0.248 0.0213,-0.3692l-17.9677 -14.3198c-0.6933,0.3351 -1.4713,0.5228 -2.2929,0.5228 -2.9134,0 -5.2761,-2.3627 -5.2761,-5.2762 0,-2.9134 2.3627,-5.2761 5.2761,-5.2761 2.9135,0 5.2762,2.3627 5.2762,5.2761 0,0.9203 -0.2358,1.7858 -0.6501,2.5391l17.4708 13.9235c0.5232,-0.2758 1.1262,-0.433 1.7685,-0.433z"/>
  <ellipse class="fil19 str3" cx="130.867" cy="84.4859" rx="1.422" ry="1.3509"/>
  <ellipse class="fil19 str3" cx="107.286" cy="65.072" rx="1.991" ry="2.3892"/>
 </g>
</svg>
